<svg width="30.000000" height="30.000000" viewBox="0 0 30 30" fill="none" xmlns="http://www.w3.org/2000/svg" xmlns:xlink="http://www.w3.org/1999/xlink">
	<desc>
			Created with Pixso.
	</desc>
	<defs>
		<clipPath id="clip4_57">
			<rect id="email-box" width="30.000000" height="30.000000" fill="white" fill-opacity="0"/>
		</clipPath>
	</defs>
	<rect id="email-box" width="30.000000" height="30.000000" fill="#FFFFFF" fill-opacity="0"/>
	<g clip-path="url(#clip4_57)">
		<path id="Vector" d="M6.25 3.75C5.58 3.75 4.95 4.01 4.48 4.48C4.01 4.95 3.75 5.58 3.75 6.25L3.75 23.75C3.75 24.41 4.01 25.04 4.48 25.51C4.95 25.98 5.58 26.25 6.25 26.25L23.75 26.25C24.41 26.25 25.04 25.98 25.51 25.51C25.98 25.04 26.25 24.41 26.25 23.75L26.25 6.25C26.25 5.58 25.98 4.95 25.51 4.48C25.04 4.01 24.41 3.75 23.75 3.75L6.25 3.75ZM8 8.12L22 8.12C22.96 8.12 23.75 8.89 23.75 9.87L23.75 20.12C23.75 20.58 23.56 21.03 23.23 21.36C22.9 21.69 22.46 21.87 22 21.87L8 21.87C7.03 21.87 6.25 21.08 6.25 20.12L6.25 9.87C6.25 8.89 7.02 8.12 8 8.12ZM7.5 10L7.5 12.5L15 17.5L22.5 12.5L22.5 10L15 15L7.5 10Z" fill="#437C9A" fill-opacity="1.000000" fill-rule="nonzero"/>
	</g>
</svg>
