<svg width="22.000000" height="30.000000" viewBox="0 0 22 30" fill="none" xmlns="http://www.w3.org/2000/svg" xmlns:xlink="http://www.w3.org/1999/xlink">
	<desc>
			Created with Pixso.
	</desc>
	<defs/>
	<path id="Vector" d="M10.5 13.72C9.47 13.72 8.49 13.32 7.77 12.6C7.05 11.87 6.64 10.89 6.64 9.87C6.64 8.85 7.05 7.87 7.77 7.14C8.49 6.42 9.47 6.02 10.5 6.02C11.52 6.02 12.5 6.42 13.22 7.14C13.94 7.87 14.35 8.85 14.35 9.87C14.35 10.38 14.25 10.88 14.06 11.34C13.86 11.81 13.58 12.24 13.22 12.6C12.86 12.95 12.44 13.24 11.97 13.43C11.5 13.62 11 13.72 10.5 13.72ZM10.5 -0.92C7.63 -0.92 4.89 0.22 2.86 2.24C0.84 4.26 -0.3 7.01 -0.3 9.87C-0.3 17.96 10.5 29.91 10.5 29.91C10.5 29.91 21.29 17.96 21.29 9.87C21.29 7.01 20.15 4.26 18.13 2.24C16.1 0.22 13.36 -0.92 10.5 -0.92Z" fill="#437C9A" fill-opacity="1.000000" fill-rule="nonzero"/>
</svg>
