<svg width="35.000000" height="35.000000" viewBox="0 0 35 35" fill="none" xmlns="http://www.w3.org/2000/svg" xmlns:xlink="http://www.w3.org/1999/xlink">
	<desc>
			Created with Pixso.
	</desc>
	<defs>
		<clipPath id="clip30_66">
			<rect id="offer-tech-3 1" width="35.000000" height="35.000000" fill="white" fill-opacity="0"/>
		</clipPath>
	</defs>
	<rect id="offer-tech-3 1" width="35.000000" height="35.000000" fill="#FFFFFF" fill-opacity="0"/>
	<g clip-path="url(#clip30_66)">
		<path id="Vector" d="M0 32.87C0.18 32.34 0.56 31.95 0.95 31.56C3.53 28.99 6.1 26.41 8.68 23.84C8.77 23.75 8.89 23.69 8.98 23.62C7.18 20.96 6.58 18.13 7.27 15.07C7.85 12.51 9.22 10.43 11.36 8.89C15.67 5.76 21.61 6.32 25.23 10.18C28.83 14 29.07 19.97 25.84 23.98C22.41 28.25 16.2 29.36 11.43 26.04C11.34 26.12 11.24 26.21 11.15 26.3C8.57 28.88 5.98 31.47 3.4 34.06C3.02 34.44 2.64 34.8 2.12 34.98C1.9 34.98 1.66 34.98 1.44 34.98C0.69 34.77 0.21 34.29 0 33.55C0 33.33 0 33.09 0 32.87ZM9.82 22.73C10.17 22.37 10.5 22.01 10.84 21.68C11.02 21.51 11.01 21.39 10.9 21.19C10.1 19.78 9.78 18.27 9.96 16.66C10.42 12.4 14.43 9.32 18.64 9.99C22.7 10.64 25.46 14.25 25.03 18.34C24.64 22.08 21.41 25.03 17.64 25.08C16.26 25.09 14.98 24.76 13.78 24.09C13.68 24.04 13.48 24.02 13.41 24.08C13.02 24.43 12.66 24.8 12.29 25.17C15.59 27.57 20.87 27.55 24.37 23.89C27.77 20.32 27.77 14.55 24.37 11.03C20.78 7.32 15.17 7.06 11.32 10.47C7.5 13.83 7.34 19.23 9.82 22.73ZM14.47 23.1C16.69 24.48 20.26 24.2 22.44 21.57C24.65 18.91 24.35 15.07 21.79 12.73C19.29 10.45 15.39 10.53 12.97 12.95C10.62 15.3 10.69 18.71 11.87 20.47C13.05 19.29 14.25 18.09 15.44 16.91C15.39 16.91 15.27 16.92 15.16 16.91C14.17 16.88 13.42 16.14 13.41 15.18C13.41 14.22 14.17 13.42 15.17 13.42C16.72 13.4 18.27 13.4 19.82 13.42C20.81 13.42 21.57 14.16 21.58 15.14C21.6 16.73 21.61 18.3 21.58 19.89C21.57 20.85 20.78 21.59 19.83 21.59C18.89 21.59 18.14 20.86 18.09 19.89C18.08 19.76 18.09 19.62 18.09 19.49C16.86 20.7 15.66 21.91 14.47 23.1ZM20.41 17.52C20.41 16.78 20.42 16.04 20.41 15.3C20.41 14.79 20.2 14.57 19.68 14.57C18.95 14.57 18.23 14.57 17.5 14.57C16.74 14.57 15.99 14.57 15.24 14.57C14.71 14.58 14.39 15.05 14.67 15.44C14.78 15.6 15.04 15.71 15.24 15.73C15.82 15.77 16.4 15.71 16.98 15.76C17.17 15.77 17.43 15.92 17.52 16.08C17.6 16.23 17.53 16.49 17.47 16.69C17.45 16.79 17.31 16.87 17.22 16.96C12.01 22.17 6.78 27.4 1.57 32.61C1.47 32.71 1.37 32.8 1.29 32.91C1.11 33.16 1.12 33.4 1.32 33.63C1.51 33.85 1.82 33.89 2.06 33.72C2.17 33.65 2.26 33.55 2.36 33.45C7.61 28.2 12.86 22.95 18.11 17.7C18.34 17.48 18.57 17.31 18.9 17.45C19.2 17.58 19.26 17.86 19.25 18.16C19.25 18.71 19.25 19.25 19.25 19.8C19.25 20.07 19.36 20.27 19.61 20.37C20.02 20.55 20.41 20.25 20.41 19.75C20.42 19 20.41 18.26 20.41 17.52Z" fill="#427C9C" fill-opacity="1.000000" fill-rule="nonzero"/>
		<path id="Vector" d="M16.61 34.99C15.99 34.82 15.69 34.39 15.56 33.78C15.41 33.02 15.18 32.28 15.01 31.52C14.97 31.32 14.87 31.24 14.66 31.19C14.12 31.06 13.58 30.91 13.05 30.75C12.87 30.7 12.76 30.74 12.64 30.87C12.05 31.49 11.46 32.1 10.86 32.71C10.39 33.2 9.91 33.27 9.32 32.95C8.93 32.74 8.55 32.52 8.16 32.29C7.82 32.08 7.72 31.75 7.9 31.46C8.08 31.15 8.41 31.09 8.76 31.29C9.16 31.52 9.54 31.75 9.96 31.99C10.58 31.35 11.2 30.73 11.78 30.07C12.26 29.53 12.79 29.4 13.46 29.66C13.96 29.84 14.49 29.96 15.01 30.07C15.61 30.19 15.98 30.52 16.11 31.12C16.3 31.92 16.5 32.71 16.69 33.5C16.74 33.73 16.83 33.84 17.07 33.82C17.43 33.79 17.9 33.93 18.13 33.75C18.36 33.58 18.37 33.1 18.46 32.75C18.6 32.21 18.74 31.65 18.87 31.1C19 30.53 19.35 30.2 19.92 30.07C20.51 29.94 21.09 29.79 21.66 29.61C22.23 29.43 22.67 29.56 23.09 29.96C23.76 30.61 24.46 31.21 25.2 31.88C25.39 31.77 25.75 31.58 26.09 31.35C26.17 31.3 26.21 31.1 26.18 31C25.98 30.22 25.77 29.44 25.51 28.67C25.31 28.04 25.45 27.54 25.95 27.11C26.39 26.73 26.79 26.3 27.18 25.88C27.56 25.47 28 25.32 28.54 25.49C29.34 25.73 30.16 25.94 30.96 26.19C31.2 26.27 31.31 26.21 31.42 26.01C31.59 25.69 31.78 25.38 31.91 25.15C31.5 24.68 31.11 24.24 30.71 23.81C30.44 23.53 30.15 23.27 29.87 23C29.55 22.67 29.45 22.27 29.58 21.8C29.77 21.15 29.94 20.49 30.11 19.83C30.24 19.34 30.52 19.03 31.02 18.91C31.86 18.7 32.69 18.49 33.53 18.29C33.74 18.24 33.84 18.15 33.83 17.93C33.81 17.63 33.81 17.33 33.83 17.04C33.83 16.84 33.76 16.77 33.57 16.72C32.76 16.53 31.95 16.32 31.15 16.13C30.52 16 30.2 15.63 30.07 15C29.95 14.42 29.78 13.86 29.61 13.29C29.44 12.76 29.56 12.33 29.94 11.92C30.59 11.25 31.2 10.54 31.88 9.78C31.78 9.58 31.58 9.21 31.35 8.87C31.3 8.8 31.12 8.76 31.02 8.79C30.22 9 29.44 9.22 28.66 9.47C28.04 9.67 27.56 9.52 27.13 9.03C26.76 8.61 26.37 8.22 25.95 7.85C25.48 7.43 25.34 6.95 25.52 6.35C25.76 5.57 25.96 4.77 26.2 3.99C26.27 3.79 26.24 3.69 26.05 3.58C25.71 3.41 25.38 3.2 25.04 3C24.41 3.65 23.78 4.28 23.19 4.94C22.74 5.44 22.24 5.57 21.6 5.34C21.08 5.16 20.53 5.03 19.98 4.91C19.37 4.79 19.02 4.45 18.88 3.85C18.7 3.04 18.48 2.24 18.29 1.43C18.25 1.22 18.16 1.15 17.95 1.16C17.58 1.18 17.11 1.05 16.86 1.23C16.63 1.39 16.63 1.87 16.54 2.22C16.39 2.8 16.24 3.37 16.11 3.95C15.98 4.45 15.68 4.75 15.17 4.87C14.52 5.03 13.87 5.2 13.23 5.39C12.74 5.54 12.33 5.43 11.98 5.07C11.39 4.46 10.8 3.86 10.22 3.25C10.15 3.17 10.08 3.06 10.02 2.97C9.61 3.2 9.27 3.41 8.92 3.6C8.75 3.69 8.75 3.79 8.8 3.96C9.04 4.75 9.25 5.56 9.5 6.35C9.69 6.96 9.54 7.43 9.07 7.85C8.63 8.24 8.23 8.67 7.82 9.11C7.44 9.52 7.01 9.65 6.47 9.5C5.66 9.26 4.85 9.04 4.04 8.79C3.8 8.72 3.69 8.78 3.58 8.98C3.41 9.3 3.22 9.6 3.12 9.79C3.78 10.51 4.37 11.2 5.01 11.84C5.45 12.28 5.59 12.75 5.38 13.35C5.2 13.9 5.06 14.46 4.94 15.03C4.81 15.61 4.5 15.96 3.93 16.1C3.13 16.29 2.34 16.49 1.54 16.68C1.29 16.73 1.16 16.83 1.19 17.1C1.22 17.38 1.21 17.65 1.19 17.92C1.18 18.15 1.27 18.24 1.49 18.28C2.27 18.47 3.05 18.68 3.84 18.85C4.49 19 4.83 19.36 4.96 20.02C5.06 20.57 5.23 21.13 5.4 21.67C5.59 22.23 5.46 22.67 5.05 23.1C4.4 23.76 3.8 24.46 3.13 25.2C3.27 25.43 3.5 25.82 3.72 26.22C3.93 26.59 3.87 26.93 3.56 27.11C3.26 27.28 2.94 27.18 2.72 26.82C2.48 26.42 2.25 26.01 2.03 25.6C1.75 25.09 1.83 24.58 2.24 24.17C2.87 23.55 3.5 22.95 4.14 22.34C4.28 22.21 4.31 22.09 4.25 21.9C4.08 21.37 3.93 20.83 3.8 20.29C3.76 20.11 3.69 20.03 3.51 19.98C2.74 19.79 1.99 19.57 1.23 19.41C0.59 19.3 0.17 19 0 18.38C0 17.79 0 17.2 0 16.6C0.17 15.99 0.59 15.69 1.2 15.56C1.96 15.41 2.71 15.18 3.46 15.01C3.67 14.96 3.75 14.87 3.8 14.66C3.92 14.13 4.06 13.6 4.22 13.08C4.28 12.88 4.24 12.75 4.09 12.62C3.47 12.04 2.87 11.46 2.26 10.87C1.78 10.4 1.7 9.91 2.03 9.32C2.22 8.95 2.44 8.59 2.65 8.23C3.01 7.63 3.47 7.45 4.15 7.64C4.96 7.87 5.77 8.09 6.58 8.33C6.78 8.39 6.9 8.35 7.04 8.2C7.41 7.8 7.78 7.42 8.18 7.06C8.36 6.91 8.38 6.78 8.31 6.56C8.07 5.75 7.84 4.93 7.6 4.1C7.44 3.51 7.63 3.02 8.16 2.69C8.53 2.46 8.92 2.24 9.31 2.03C9.9 1.71 10.39 1.79 10.86 2.26C11.45 2.88 12.05 3.49 12.63 4.11C12.77 4.25 12.88 4.29 13.08 4.23C13.61 4.06 14.15 3.91 14.69 3.78C14.87 3.74 14.95 3.67 15 3.49C15.18 2.72 15.41 1.97 15.57 1.2C15.69 0.59 15.99 0.17 16.61 0C17.2 0 17.79 0 18.38 0C19 0.17 19.31 0.59 19.43 1.2C19.58 1.95 19.79 2.68 19.97 3.43C20.02 3.63 20.1 3.75 20.33 3.79C20.87 3.91 21.39 4.06 21.91 4.22C22.12 4.28 22.24 4.24 22.38 4.09C22.96 3.47 23.56 2.85 24.15 2.24C24.59 1.79 25.1 1.72 25.64 2.01C26.03 2.22 26.4 2.44 26.77 2.65C27.37 3.02 27.56 3.48 27.37 4.16C27.14 4.96 26.91 5.76 26.68 6.55C26.61 6.78 26.66 6.91 26.83 7.07C27.22 7.41 27.58 7.77 27.92 8.16C28.08 8.33 28.21 8.39 28.44 8.32C29.25 8.07 30.07 7.83 30.89 7.61C31.5 7.45 31.98 7.64 32.3 8.16C32.53 8.53 32.74 8.91 32.95 9.28C33.29 9.91 33.22 10.39 32.71 10.88C32.1 11.47 31.5 12.06 30.88 12.63C30.74 12.77 30.71 12.88 30.76 13.08C30.93 13.61 31.08 14.14 31.21 14.69C31.25 14.87 31.32 14.95 31.5 15C32.27 15.17 33.02 15.41 33.79 15.56C34.4 15.69 34.82 15.99 35 16.61C35 17.2 35 17.79 35 18.39C34.82 19.01 34.4 19.3 33.79 19.43C33.02 19.59 32.26 19.81 31.5 19.99C31.32 20.03 31.25 20.12 31.21 20.3C31.08 20.84 30.93 21.38 30.77 21.91C30.71 22.12 30.74 22.24 30.9 22.39C31.52 22.96 32.12 23.55 32.73 24.13C33.21 24.61 33.29 25.09 32.97 25.68C32.77 26.05 32.56 26.42 32.34 26.77C31.98 27.38 31.52 27.56 30.84 27.37C30.03 27.14 29.22 26.91 28.41 26.67C28.21 26.61 28.09 26.65 27.95 26.81C27.58 27.2 27.21 27.59 26.81 27.94C26.63 28.1 26.61 28.23 26.68 28.44C26.92 29.25 27.15 30.07 27.39 30.9C27.55 31.5 27.36 31.99 26.83 32.31C26.46 32.54 26.09 32.75 25.71 32.96C25.09 33.3 24.6 33.22 24.11 32.71C23.52 32.1 22.93 31.48 22.33 30.87C22.25 30.79 22.07 30.75 21.96 30.78C21.42 30.91 20.89 31.08 20.35 31.2C20.14 31.25 20.04 31.33 20 31.54C19.82 32.29 19.6 33.03 19.44 33.79C19.31 34.4 19.02 34.82 18.4 35C17.79 34.99 17.2 34.99 16.61 34.99Z" fill="#427C9C" fill-opacity="1.000000" fill-rule="nonzero"/>
	</g>
</svg>
