<svg width="35.000031" height="33.000000" viewBox="0 0 35 33" fill="none" xmlns="http://www.w3.org/2000/svg" xmlns:xlink="http://www.w3.org/1999/xlink">
	<desc>
			Created with Pixso.
	</desc>
	<defs/>
	<path id="Vector" d="M27.62 5.47C28.54 5.47 29.43 5.47 30.31 5.47C31.34 5.47 32.35 5.46 33.38 5.47C34.07 5.47 34.29 5.71 34.29 6.4C34.29 7.88 34.29 9.36 34.29 10.84C34.29 11.66 34.1 11.85 33.3 11.85C33.19 11.85 33.07 11.86 32.92 11.87C32.92 15.45 32.92 19.01 32.92 22.63C33.35 22.63 33.77 22.62 34.18 22.63C34.74 22.64 34.99 22.89 34.99 23.44C35 26.12 35 28.8 34.99 31.48C34.99 32.05 34.73 32.32 34.16 32.32C33.75 32.33 33.34 32.32 32.91 32.32C32.9 32.56 32.88 32.77 32.86 33C32.42 33 31.98 33 31.52 33C31.51 32.78 31.5 32.58 31.49 32.34C22.17 32.34 12.84 32.34 3.5 32.34C3.49 32.56 3.48 32.76 3.46 32.99C3.01 32.99 2.59 32.99 2.1 32.99C2.1 32.78 2.08 32.57 2.07 32.31C1.66 32.31 1.25 32.31 0.84 32.31C0.25 32.31 0 32.06 0 31.47C0 28.81 0 26.14 0 23.48C0 22.87 0.23 22.64 0.84 22.63C1.25 22.62 1.65 22.63 2.07 22.63C2.07 19.01 2.07 15.46 2.07 11.85C1.83 11.85 1.62 11.86 1.4 11.85C0.98 11.83 0.7 11.6 0.7 11.17C0.69 9.5 0.68 7.83 0.7 6.16C0.7 5.7 1.01 5.47 1.57 5.47C3.34 5.47 5.1 5.47 6.87 5.47C7.02 5.47 7.18 5.47 7.41 5.47C7.41 5.04 7.37 4.64 7.42 4.27C7.45 4.01 7.56 3.75 7.71 3.53C8.42 2.43 9.4 2.06 10.72 2.17C12.07 2.3 13.45 2.2 14.88 2.2C14.88 1.74 14.88 1.33 14.88 0.91C14.88 0.24 15.13 0 15.77 0C16.82 0 17.87 0 18.92 0C19.5 0 19.74 0.24 19.76 0.81C19.77 1.23 19.77 1.66 19.77 2.09C19.77 2.1 19.78 2.11 19.81 2.19C19.95 2.19 20.12 2.19 20.28 2.19C22.02 2.19 23.76 2.2 25.49 2.18C25.86 2.18 26.15 2.28 26.38 2.57C26.4 2.61 26.44 2.64 26.46 2.67C27.28 3.33 27.78 4.13 27.57 5.24C27.57 5.29 27.59 5.35 27.62 5.47ZM3.5 22.62C3.71 22.62 3.89 22.62 4.08 22.62C6.84 22.62 9.6 22.62 12.35 22.62C13.07 22.62 13.08 22.61 12.99 21.88C12.99 21.85 12.97 21.83 12.95 21.8C12.92 21.79 12.9 21.77 12.87 21.77C12.45 21.77 12.02 21.77 11.6 21.76C11.05 21.76 10.74 21.5 10.75 21.04C10.76 20.61 11.06 20.37 11.59 20.37C15.53 20.37 19.47 20.37 23.41 20.37C23.96 20.37 24.27 20.62 24.26 21.08C24.25 21.52 23.96 21.75 23.42 21.75C22.95 21.75 22.5 21.75 22.05 21.75C21.92 22.62 21.92 22.62 22.69 22.61C25.45 22.61 28.21 22.61 30.96 22.61C31.14 22.61 31.3 22.61 31.5 22.61C31.5 19 31.5 15.43 31.5 11.86C27.06 11.86 22.65 11.86 18.24 11.86C18.24 12.53 18.24 13.17 18.24 13.85C18.45 13.85 18.63 13.85 18.82 13.85C20.38 13.85 21.95 13.85 23.5 13.85C24.06 13.85 24.39 14.24 24.25 14.72C24.13 15.14 23.78 15.23 23.39 15.23C21.47 15.23 19.54 15.24 17.61 15.23C15.62 15.23 13.61 15.23 11.62 15.23C11.23 15.23 10.92 15.13 10.8 14.72C10.65 14.23 10.99 13.84 11.57 13.84C13.14 13.83 14.72 13.84 16.29 13.84C16.46 13.84 16.63 13.84 16.8 13.84C16.8 13.13 16.8 12.5 16.8 11.85C12.36 11.85 7.95 11.85 3.53 11.85C3.5 15.46 3.5 19.01 3.5 22.62ZM33.59 24.04C22.85 24.04 12.13 24.04 1.41 24.04C1.41 26.35 1.41 28.63 1.41 30.89C12.15 30.89 22.87 30.89 33.59 30.89C33.59 28.6 33.59 26.33 33.59 24.04ZM32.88 6.85C32.66 6.85 32.49 6.85 32.32 6.85C30.55 6.85 28.79 6.85 27.02 6.85C26.44 6.85 26.2 6.61 26.19 6.03C26.18 5.64 26.19 5.24 26.19 4.85C26.19 4.14 25.65 3.59 24.96 3.59C20.06 3.59 15.15 3.6 10.26 3.58C9.75 3.58 9.34 3.68 9.07 4.11C8.95 4.3 8.84 4.53 8.82 4.76C8.77 5.15 8.81 5.55 8.81 5.94C8.8 6.64 8.59 6.86 7.89 6.86C6.12 6.86 4.36 6.86 2.59 6.86C2.44 6.86 2.29 6.86 2.11 6.86C2.11 8.09 2.11 9.25 2.11 10.44C12.38 10.44 22.62 10.44 32.89 10.44C32.88 9.25 32.88 8.08 32.88 6.85ZM14.42 21.79C14.31 22.63 14.31 22.63 15.07 22.63C16.69 22.63 18.31 22.63 19.93 22.63C20.67 22.63 20.67 22.63 20.6 21.89C20.6 21.86 20.57 21.83 20.55 21.8C18.52 21.79 16.48 21.79 14.42 21.79ZM18.35 2.08C18.35 1.82 18.35 1.61 18.35 1.41C17.65 1.41 16.99 1.41 16.31 1.41C16.31 1.65 16.31 1.85 16.31 2.08C16.99 2.08 17.66 2.08 18.35 2.08Z" fill="#427C9C" fill-opacity="1.000000" fill-rule="nonzero"/>
</svg>
