<svg width="35.000000" height="35.000000" viewBox="0 0 35 35" fill="none" xmlns="http://www.w3.org/2000/svg" xmlns:xlink="http://www.w3.org/1999/xlink">
	<desc>
			Created with Pixso.
	</desc>
	<defs>
		<clipPath id="clip30_69">
			<rect id="offer-tech-4 1" width="35.000000" height="35.000000" fill="white" fill-opacity="0"/>
		</clipPath>
	</defs>
	<rect id="offer-tech-4 1" width="35.000000" height="35.000000" fill="#FFFFFF" fill-opacity="0"/>
	<g clip-path="url(#clip30_69)">
		<path id="Vector" d="M31.91 35C31.69 35 31.45 35 31.23 35C30.7 34.82 30.33 34.46 29.94 34.08C27.58 31.71 25.21 29.35 22.85 26.97C22.62 26.74 22.47 26.72 22.19 26.86C20.11 27.91 17.92 28.23 15.63 27.82C14.3 27.58 13.07 27.09 11.93 26.38C11.07 27.24 10.2 28.08 9.37 28.95C9.25 29.07 9.23 29.36 9.26 29.55C9.56 31.56 8.63 33.49 6.82 34.43C6.32 34.69 5.74 34.8 5.19 34.99C4.85 34.99 4.51 34.99 4.16 34.99C4.08 34.96 3.99 34.93 3.9 34.92C3.49 34.87 3.15 34.71 3.02 34.28C2.89 33.87 3.07 33.55 3.37 33.25C3.94 32.71 4.49 32.14 5.04 31.58C5.34 31.28 5.33 30.99 5.05 30.69C4.83 30.46 4.6 30.23 4.38 30.01C3.99 29.63 3.72 29.63 3.33 30.01C2.76 30.58 2.19 31.16 1.61 31.72C1.07 32.25 0.29 32.01 0.1 31.28C0.07 31.15 0.04 31.02 0 30.89C0 30.5 0 30.11 0 29.72C0.02 29.68 0.05 29.65 0.06 29.6C0.56 26.94 2.8 25.34 5.46 25.75C5.76 25.79 5.99 25.71 6.2 25.49C6.95 24.73 7.71 23.98 8.47 23.22C8.52 23.16 8.57 23.1 8.6 23.07C6.36 19.09 6.48 15.22 8.98 11.34C8.89 11.28 8.78 11.22 8.69 11.14C6.97 9.41 5.23 7.71 3.53 5.96C2.87 5.29 2.17 4.7 1.29 4.34C0.88 4.18 0.65 3.86 0.55 3.43C0.36 2.76 0.17 2.1 0 1.43C0 1.25 0 1.07 0 0.88C0.17 0.47 0.47 0.17 0.88 0C1.07 0 1.25 0 1.43 0C2.03 0.16 2.63 0.34 3.23 0.47C3.82 0.59 4.21 0.88 4.45 1.44C4.64 1.87 4.85 2.34 5.17 2.67C7.16 4.7 9.18 6.7 11.2 8.72C11.27 8.79 11.36 8.87 11.44 8.94C13.19 7.71 15.1 7.06 17.2 7C19.31 6.94 21.26 7.5 23.08 8.62C23.88 7.8 24.67 7 25.48 6.22C25.73 5.98 25.8 5.72 25.74 5.39C25.34 3.13 26.75 0.87 28.94 0.2C29.2 0.12 29.47 0.06 29.73 0C30.12 0 30.5 0 30.89 0C30.95 0.02 31.01 0.05 31.08 0.06C31.5 0.1 31.83 0.28 31.96 0.69C32.09 1.11 31.91 1.43 31.61 1.72C31.04 2.26 30.5 2.81 29.96 3.37C29.63 3.7 29.63 3.98 29.96 4.32C30.16 4.53 30.37 4.74 30.59 4.94C31.01 5.37 31.25 5.37 31.68 4.94C32.25 4.38 32.8 3.81 33.38 3.26C33.92 2.73 34.69 2.96 34.88 3.7C34.92 3.85 34.95 4.01 34.99 4.16C34.99 4.51 34.99 4.85 34.99 5.19C34.97 5.22 34.94 5.25 34.94 5.28C34.63 7.82 32.16 9.77 29.42 9.25C29.27 9.22 29.04 9.29 28.93 9.39C28.06 10.21 27.22 11.07 26.38 11.91C26.42 11.99 26.45 12.05 26.49 12.11C28.39 15.46 28.51 18.86 26.8 22.31C26.68 22.55 26.78 22.66 26.92 22.8C29.32 25.19 31.71 27.58 34.1 29.97C34.48 30.34 34.82 30.72 35 31.23C35 31.45 35 31.69 35 31.91C34.85 32.42 34.53 32.81 34.15 33.16C33.81 33.47 33.48 33.81 33.17 34.14C32.8 34.53 32.43 34.85 31.91 35ZM26.82 17.49C26.81 12.33 22.62 8.15 17.46 8.16C12.33 8.16 8.15 12.36 8.16 17.5C8.16 22.66 12.37 26.84 17.51 26.83C22.66 26.81 26.84 22.62 26.82 17.49ZM1.19 30.51C1.69 30 2.13 29.55 2.59 29.1C3.32 28.4 4.37 28.4 5.11 29.1C5.38 29.36 5.65 29.62 5.91 29.89C6.61 30.62 6.61 31.65 5.91 32.37C5.53 32.77 5.13 33.16 4.73 33.56C4.66 33.63 4.61 33.7 4.52 33.81C4.71 33.81 4.86 33.82 5 33.81C7.03 33.56 8.39 31.87 8.11 29.85C8 28.99 8.22 28.34 8.86 27.78C9.07 27.6 9.26 27.38 9.47 27.18C9.96 26.69 10.45 26.2 10.87 25.78C10.31 25.23 9.78 24.69 9.23 24.14C9.21 24.15 9.13 24.23 9.05 24.3C8.36 24.99 7.66 25.68 6.97 26.38C6.5 26.86 5.94 26.98 5.28 26.91C4.83 26.87 4.35 26.85 3.9 26.94C2.26 27.25 1.03 28.86 1.19 30.51ZM24.13 9.2C24.71 9.78 25.24 10.32 25.79 10.86C26.51 10.15 27.27 9.37 28.04 8.59C28.5 8.14 29.04 7.99 29.66 8.1C30.89 8.3 31.97 7.97 32.84 7.08C33.52 6.38 33.83 5.53 33.81 4.45C33.31 4.96 32.86 5.42 32.41 5.86C31.65 6.61 30.62 6.62 29.86 5.87C29.6 5.63 29.35 5.38 29.1 5.13C28.36 4.36 28.36 3.32 29.1 2.57C29.49 2.17 29.89 1.78 30.29 1.38C30.34 1.33 30.39 1.25 30.46 1.17C28.31 1.05 26.56 2.97 26.88 5.1C27.01 5.96 26.78 6.6 26.16 7.18C25.44 7.86 24.76 8.57 24.13 9.2ZM25.28 24.54C25.39 24.62 25.51 24.69 25.59 24.78C27.52 26.71 29.45 28.64 31.39 30.57C31.48 30.66 31.57 30.74 31.64 30.85C31.8 31.09 31.78 31.34 31.58 31.56C31.4 31.78 31.08 31.81 30.84 31.65C30.74 31.58 30.65 31.48 30.56 31.39C28.62 29.45 26.68 27.51 24.74 25.57C24.65 25.49 24.56 25.4 24.46 25.32C24.16 25.57 23.87 25.8 23.58 26.03C23.62 26.08 23.62 26.1 23.64 26.12C26.13 28.6 28.62 31.09 31.11 33.58C31.43 33.91 31.72 33.91 32.05 33.58C32.53 33.11 33 32.63 33.48 32.16C33.94 31.7 33.94 31.47 33.48 31.02C31.08 28.62 28.68 26.22 26.28 23.82C26.21 23.74 26.12 23.67 26.03 23.59C25.8 23.89 25.57 24.17 25.28 24.54ZM1.17 1.16C1.33 1.81 1.48 2.38 1.61 2.96C1.66 3.19 1.76 3.32 1.97 3.41C2.82 3.74 3.5 4.3 4.14 4.95C5.87 6.73 7.64 8.47 9.4 10.23C9.49 10.32 9.54 10.44 9.58 10.51C9.93 10.17 10.19 9.91 10.52 9.6C10.43 9.54 10.32 9.48 10.23 9.39C8.54 7.71 6.87 6.01 5.17 4.35C4.42 3.62 3.74 2.88 3.36 1.9C3.32 1.81 3.23 1.7 3.14 1.67C2.51 1.5 1.87 1.34 1.17 1.16Z" fill="#427C9C" fill-opacity="1.000000" fill-rule="nonzero"/>
		<path id="Vector" d="M14 12.24C14 12 13.99 11.81 14 11.62C14.03 10.67 14.76 9.92 15.7 9.91C16.9 9.89 18.09 9.89 19.29 9.91C20.23 9.92 20.96 10.67 20.99 11.61C21 11.8 20.99 11.99 20.99 12.23C21.52 12.23 22.02 12.26 22.51 12.22C23.62 12.16 24.57 12.94 24.5 14.21C24.46 14.99 24.48 15.77 24.49 16.54C24.5 17.02 24.35 17.45 24.04 17.83C23.96 17.93 23.92 18.1 23.92 18.23C23.92 19.3 23.92 20.37 23.92 21.44C23.92 22.59 23.2 23.32 22.04 23.32C19.02 23.32 15.99 23.32 12.95 23.32C11.8 23.32 11.08 22.59 11.08 21.45C11.08 20.37 11.09 19.31 11.07 18.23C11.07 18.08 11.01 17.91 10.91 17.78C10.66 17.44 10.51 17.08 10.51 16.65C10.51 15.77 10.49 14.89 10.51 14.02C10.52 12.97 11.27 12.25 12.31 12.24C12.85 12.24 13.4 12.24 14 12.24ZM19.17 18.23C20.44 17.88 21.69 17.54 22.93 17.19C23.22 17.11 23.32 16.87 23.32 16.57C23.31 15.75 23.32 14.93 23.32 14.11C23.32 13.61 23.12 13.4 22.62 13.4C19.2 13.4 15.79 13.4 12.37 13.4C11.87 13.4 11.67 13.61 11.67 14.11C11.67 14.91 11.67 15.7 11.67 16.5C11.67 16.98 11.77 17.11 12.22 17.24C13.2 17.51 14.19 17.78 15.17 18.05C15.39 18.11 15.61 18.16 15.82 18.22C16.12 17.67 16.56 17.46 17.14 17.5C17.38 17.51 17.61 17.51 17.85 17.5C18.43 17.46 18.87 17.66 19.17 18.23ZM12.24 18.46C12.24 19.49 12.24 20.47 12.24 21.45C12.24 21.95 12.45 22.16 12.95 22.16C15.97 22.16 19.01 22.16 22.04 22.16C22.54 22.16 22.74 21.95 22.75 21.45C22.75 20.54 22.75 19.63 22.75 18.72C22.75 18.64 22.73 18.58 22.72 18.47C21.66 18.76 20.64 19.05 19.6 19.32C19.34 19.39 19.23 19.48 19.24 19.77C19.25 20.35 18.97 20.84 18.46 20.91C17.83 21 17.17 21 16.53 20.91C16.02 20.84 15.77 20.35 15.74 19.74C15.73 19.61 15.66 19.42 15.58 19.39C14.48 19.07 13.39 18.77 12.24 18.46ZM19.82 12.22C19.82 12.03 19.82 11.88 19.82 11.72C19.81 11.31 19.6 11.08 19.19 11.08C18.06 11.07 16.92 11.07 15.78 11.08C15.48 11.08 15.24 11.23 15.18 11.53C15.14 11.75 15.17 11.99 15.17 12.22C16.74 12.22 18.26 12.22 19.82 12.22ZM16.93 19.81C17.31 19.81 17.68 19.81 18.05 19.81C18.05 19.42 18.05 19.05 18.05 18.68C17.67 18.68 17.31 18.68 16.93 18.68C16.93 19.05 16.93 19.42 16.93 19.81Z" fill="#427C9C" fill-opacity="1.000000" fill-rule="nonzero"/>
	</g>
</svg>
