<svg width="35.000000" height="35.000000" viewBox="0 0 35 35" fill="none" xmlns="http://www.w3.org/2000/svg" xmlns:xlink="http://www.w3.org/1999/xlink">
	<desc>
			Created with Pixso.
	</desc>
	<defs>
		<clipPath id="clip30_62">
			<rect id="offer-tech-2 1" width="35.000000" height="35.000000" fill="white" fill-opacity="0"/>
		</clipPath>
	</defs>
	<rect id="offer-tech-2 1" width="35.000000" height="35.000000" fill="#FFFFFF" fill-opacity="0"/>
	<g clip-path="url(#clip30_62)">
		<path id="Vector" d="M6.13 4.95C8.1 4.97 9.55 4 10.29 2.18C10.3 2.16 10.3 2.15 10.31 2.14C10.7 1.16 10.81 1.1 11.8 1.54C12.72 1.94 13.65 2.06 14.61 1.81C15.32 1.63 15.94 1.3 16.47 0.8C16.66 0.62 16.84 0.42 17.02 0.24C17.36 -0.08 17.68 -0.09 18.01 0.23C18.18 0.4 18.34 0.58 18.51 0.74C19.79 1.91 21.26 2.23 22.92 1.67C23.19 1.58 23.45 1.44 23.71 1.34C24.09 1.2 24.38 1.32 24.54 1.68C24.66 1.92 24.73 2.17 24.84 2.41C25.6 4.04 26.89 4.87 28.68 4.95C28.88 4.96 29.08 4.95 29.28 4.95C29.85 4.95 30.04 5.15 30.05 5.72C30.07 6.23 30.05 6.75 30.17 7.24C30.49 8.66 31.37 9.66 32.72 10.21C33.89 10.7 33.89 10.7 33.41 11.87C32.71 13.57 33.05 15.29 34.35 16.59C34.5 16.74 34.66 16.89 34.8 17.04C35.06 17.32 35.06 17.64 34.8 17.92C34.64 18.11 34.44 18.27 34.27 18.45C33.03 19.8 32.72 21.32 33.37 23.03C33.45 23.26 33.56 23.47 33.64 23.69C33.78 24.07 33.66 24.36 33.3 24.52C33.05 24.64 32.79 24.73 32.54 24.84C30.94 25.6 30.11 26.89 30.04 28.66C30.03 28.87 30.04 29.08 30.04 29.29C30.03 29.8 29.82 30.01 29.3 30.03C28.78 30.05 28.24 30.03 27.74 30.15C26.32 30.48 25.33 31.36 24.77 32.71C24.29 33.87 24.28 33.88 23.1 33.39C21.4 32.69 19.68 33.04 18.38 34.34C17.51 35.21 17.49 35.21 16.61 34.34C15.3 33.02 13.57 32.69 11.85 33.41C10.73 33.87 10.7 33.86 10.24 32.74C9.53 31.01 8.05 30.02 6.18 30.03C5 30.04 4.96 30 4.97 28.81C4.97 26.95 3.98 25.47 2.25 24.76C1.13 24.3 1.13 24.27 1.59 23.14C2.31 21.41 1.97 19.69 0.62 18.36C-0.22 17.52 -0.22 17.48 0.63 16.63C1.98 15.29 2.31 13.56 1.58 11.81C1.13 10.74 1.16 10.68 2.22 10.25C3.99 9.53 4.98 8.05 4.97 6.14C4.97 6.12 4.97 6.11 4.97 6.1C4.99 5 5.03 4.94 6.13 4.95ZM32.28 23.61C31.43 21.3 31.83 19.26 33.49 17.49C31.82 15.68 31.43 13.64 32.27 11.38C30.05 10.35 28.9 8.63 28.81 6.2C26.37 6.11 24.65 4.95 23.64 2.75C21.35 3.59 19.31 3.19 17.53 1.53C15.73 3.19 13.7 3.59 11.41 2.75C10.4 4.98 8.68 6.13 6.23 6.2C6.14 8.66 4.98 10.38 2.77 11.39C3.62 13.68 3.21 15.72 1.54 17.51C2.36 18.31 2.88 19.26 3.09 20.37C3.31 21.48 3.18 22.56 2.76 23.59C2.82 23.63 2.85 23.65 2.88 23.67C4.94 24.64 6.07 26.24 6.19 28.53C6.2 28.81 6.35 28.81 6.55 28.81C7.66 28.84 8.66 29.22 9.55 29.87C10.39 30.47 10.98 31.28 11.39 32.24C13.7 31.4 15.75 31.8 17.53 33.45C19.33 31.79 21.36 31.4 23.63 32.24C23.66 32.2 23.68 32.17 23.7 32.14C24.66 30.08 26.3 28.98 28.57 28.81C28.85 28.79 28.84 28.63 28.84 28.44C28.88 27.33 29.25 26.34 29.9 25.45C30.52 24.61 31.32 24.01 32.28 23.61Z" fill="#427C9C" fill-opacity="1.000000" fill-rule="nonzero"/>
		<path id="Vector" d="M4.2 17.48C4.21 10.14 10.18 4.18 17.53 4.16C24.86 4.14 30.91 10.2 30.86 17.5C30.81 24.87 24.84 30.82 17.52 30.8C10.16 30.78 4.19 24.81 4.2 17.48ZM17.52 5.4C10.85 5.41 5.44 10.81 5.44 17.47C5.44 24.15 10.86 29.57 17.53 29.57C24.19 29.57 29.61 24.15 29.61 17.5C29.62 10.82 24.2 5.4 17.52 5.4Z" fill="#427C9C" fill-opacity="1.000000" fill-rule="nonzero"/>
		<path id="Vector" d="M11.97 23.98C12.1 23.31 12.24 22.56 12.39 21.82C12.55 20.96 12.7 20.1 12.89 19.24C12.95 18.97 12.87 18.81 12.69 18.63C11.61 17.56 10.55 16.48 9.49 15.41C9.26 15.18 9.05 14.96 9.17 14.59C9.29 14.23 9.6 14.18 9.92 14.14C11.39 13.95 12.87 13.77 14.34 13.59C14.65 13.56 14.85 13.46 15 13.16C15.67 11.81 16.38 10.47 17.07 9.13C17.21 8.85 17.37 8.61 17.73 8.61C18.08 8.61 18.24 8.86 18.37 9.15C19.03 10.55 19.7 11.94 20.35 13.35C20.44 13.55 20.55 13.65 20.78 13.68C22.31 13.92 23.84 14.18 25.37 14.43C25.68 14.48 25.97 14.55 26.08 14.89C26.17 15.23 26 15.45 25.76 15.67C24.63 16.72 23.52 17.78 22.39 18.82C22.2 19 22.15 19.17 22.19 19.41C22.43 20.93 22.65 22.45 22.89 23.97C22.95 24.28 22.95 24.58 22.66 24.78C22.38 24.97 22.12 24.88 21.86 24.73C20.5 23.98 19.14 23.25 17.79 22.49C17.56 22.36 17.4 22.36 17.17 22.48C15.78 23.2 14.38 23.89 12.99 24.59C12.44 24.85 11.97 24.6 11.97 23.98ZM17.71 10.62C17.61 10.8 17.53 10.91 17.47 11.03C16.93 12.09 16.37 13.16 15.82 14.22C15.69 14.49 15.52 14.67 15.21 14.71C14.61 14.78 14.01 14.86 13.42 14.94C12.66 15.03 11.9 15.13 11.07 15.24C11.2 15.38 11.28 15.47 11.36 15.55C12.22 16.41 13.07 17.28 13.92 18.13C14.17 18.37 14.25 18.63 14.17 18.98C14.02 19.66 13.9 20.35 13.77 21.04C13.65 21.66 13.54 22.27 13.42 22.96C13.59 22.87 13.71 22.83 13.82 22.77C14.9 22.23 15.99 21.69 17.07 21.13C17.36 20.98 17.62 20.98 17.92 21.14C18.36 21.4 18.81 21.64 19.26 21.88C20 22.28 20.72 22.69 21.47 23.1C21.47 23 21.48 22.94 21.47 22.88C21.29 21.67 21.11 20.46 20.9 19.26C20.83 18.82 20.92 18.48 21.27 18.16C22.14 17.39 22.97 16.57 23.82 15.78C23.92 15.69 24.06 15.66 24.18 15.6C24.14 15.55 24.09 15.51 24.06 15.46C22.83 15.26 21.59 15.04 20.36 14.87C19.85 14.79 19.53 14.59 19.31 14.1C18.83 12.96 18.27 11.82 17.71 10.62Z" fill="#427C9C" fill-opacity="1.000000" fill-rule="nonzero"/>
	</g>
</svg>
