<svg width="18.000000" height="18.000000" viewBox="0 0 18 18" fill="none" xmlns="http://www.w3.org/2000/svg" xmlns:xlink="http://www.w3.org/1999/xlink">
	<desc>
			Created with Pixso.
	</desc>
	<defs/>
	<path id="Vector" d="M17 12.5C15.8 12.5 14.5 12.29 13.4 11.9L13.1 11.9C12.8 11.9 12.6 12 12.4 12.2L10.2 14.4C7.39 12.9 5 10.59 3.6 7.79L5.79 5.59C6.1 5.29 6.2 4.9 6 4.59C5.7 3.5 5.5 2.2 5.5 1C5.5 0.5 5 0 4.5 0L1 0C0.5 0 0 0.5 0 1C0 10.4 7.6 18 17 18C17.5 18 18 17.5 18 17L18 13.5C18 13 17.5 12.5 17 12.5ZM2 2L3.5 2C3.6 2.9 3.79 3.79 4 4.59L2.79 5.79C2.39 4.59 2.1 3.29 2 2ZM16 16C14.7 15.9 13.4 15.59 12.2 15.2L13.4 14C14.2 14.2 15.1 14.4 16 14.4L16 16ZM12 9L14 9C14 7.67 13.47 6.4 12.53 5.46C11.59 4.52 10.32 4 9 4L9 6C9.79 6 10.55 6.31 11.12 6.87C11.68 7.44 12 8.2 12 9ZM16 9L18 9C18 4 13.97 0 9 0L9 2C12.86 2 16 5.12 16 9Z" fill="#437C9A" fill-opacity="1.000000" fill-rule="nonzero"/>
</svg>
