<svg width="27.916656" height="50.250000" viewBox="0 0 27.9167 50.25" fill="none" xmlns="http://www.w3.org/2000/svg" xmlns:xlink="http://www.w3.org/1999/xlink">
	<desc>
			Created with Pixso.
	</desc>
	<defs/>
	<path id="Vector" d="M0 33.5L5.58 33.5C5.58 36.51 9.4 39.08 13.95 39.08C18.5 39.08 22.33 36.51 22.33 33.5C22.33 30.42 19.43 29.31 13.28 27.83C7.37 26.35 0 24.51 0 16.75C0 11.75 4.1 7.5 9.77 6.08L9.77 0L18.14 0L18.14 6.08C23.81 7.5 27.91 11.75 27.91 16.75L22.33 16.75C22.33 13.73 18.5 11.16 13.95 11.16C9.4 11.16 5.58 13.73 5.58 16.75C5.58 19.82 8.48 20.93 14.62 22.41C20.54 23.89 27.91 25.73 27.91 33.5C27.91 38.49 23.81 42.74 18.14 44.16L18.14 50.25L9.77 50.25L9.77 44.16C4.1 42.74 0 38.49 0 33.5Z" fill="#FFFFFF" fill-opacity="1.000000" fill-rule="nonzero"/>
</svg>
