<svg width="55.833336" height="33.500000" viewBox="0 0 55.8333 33.5" fill="none" xmlns="http://www.w3.org/2000/svg" xmlns:xlink="http://www.w3.org/1999/xlink">
	<desc>
			Created with Pixso.
	</desc>
	<defs/>
	<path id="Vector" d="M41.87 13.95L50.25 13.95C51.73 13.95 53.15 14.54 54.19 15.59C55.24 16.64 55.83 18.06 55.83 19.54L55.83 27.91C55.83 29.39 55.24 30.81 54.19 31.86C53.15 32.91 51.73 33.5 50.25 33.5L41.87 33.5C40.39 33.5 38.97 32.91 37.92 31.86C36.87 30.81 36.29 29.39 36.29 27.91L36.29 19.54C36.29 18.06 36.87 16.64 37.92 15.59C38.97 14.54 40.39 13.95 41.87 13.95ZM41.87 19.54L41.87 27.91L50.25 27.91L50.25 19.54L41.87 19.54ZM0 0L13.95 0C15.43 0 16.85 0.58 17.9 1.63C18.95 2.68 19.54 4.1 19.54 5.58L19.54 11.16C19.54 12.64 18.95 14.06 17.9 15.11C16.85 16.16 15.43 16.75 13.95 16.75C15.43 16.75 16.85 17.33 17.9 18.38C18.95 19.43 19.54 20.85 19.54 22.33L19.54 27.91C19.54 29.39 18.95 30.81 17.9 31.86C16.85 32.91 15.43 33.5 13.95 33.5L0 33.5L0 16.75L0 0ZM5.58 5.58L5.58 13.95L13.95 13.95L13.95 5.58L5.58 5.58ZM5.58 27.91L13.95 27.91L13.95 19.54L5.58 19.54L5.58 27.91ZM25.12 16.75L30.7 16.75L30.7 33.5L25.12 33.5L25.12 16.75ZM25.12 5.58L30.7 5.58L30.7 11.16L25.12 11.16L25.12 5.58Z" fill="#FFFFFF" fill-opacity="1.000000" fill-rule="nonzero"/>
</svg>
