<svg width="45.000000" height="41.000000" viewBox="0 0 45 41" fill="none" xmlns="http://www.w3.org/2000/svg" xmlns:xlink="http://www.w3.org/1999/xlink">
	<desc>
			Created with Pixso.
	</desc>
	<defs/>
	<path id="Vector" d="M8.18 16.4L8.18 41L0 41L0 16.4L8.18 16.4ZM16.36 41C15.27 41 14.23 40.56 13.47 39.79C12.7 39.03 12.27 37.98 12.27 36.9L12.27 16.4C12.27 15.27 12.72 14.24 13.47 13.5L26.93 0L29.1 2.17C29.65 2.72 30 3.48 30 4.32L29.94 4.98L28 14.35L40.9 14.35C43.17 14.35 45 16.19 45 18.45L45 22.55C45 23.08 44.89 23.57 44.71 24.04L38.53 38.49C37.92 39.97 36.47 41 34.77 41L16.36 41ZM16.36 36.9L34.83 36.9L40.9 22.55L40.9 18.45L22.92 18.45L25.24 7.54L16.36 16.46L16.36 36.9Z" fill="#FFFFFF" fill-opacity="1.000000" fill-rule="nonzero"/>
</svg>
